<svg width="8731" height="3444" xmlns="http://www.w3.org/2000/svg" xmlns:xlink="http://www.w3.org/1999/xlink" xml:space="preserve" overflow="hidden"><defs><filter id="fx0" x="-10%" y="-10%" width="120%" height="120%" filterUnits="userSpaceOnUse" primitiveUnits="userSpaceOnUse"><feComponentTransfer color-interpolation-filters="sRGB"><feFuncR type="discrete" tableValues="0 0"/><feFuncG type="discrete" tableValues="0 0"/><feFuncB type="discrete" tableValues="0 0"/><feFuncA type="linear" slope="0.4" intercept="0"/></feComponentTransfer><feGaussianBlur stdDeviation="6.11111 6.11111"/></filter><clipPath id="clip1"><rect x="539" y="127" width="8731" height="3444"/></clipPath><clipPath id="clip2"><path d="M687.328 140.5C612.865 140.5 552.5 200.865 552.5 275.328L552.5 3402.67C552.5 3477.14 612.865 3537.5 687.328 3537.5L9101.67 3537.5C9176.14 3537.5 9236.5 3477.14 9236.5 3402.67L9236.5 275.328C9236.5 200.865 9176.14 140.5 9101.67 140.5ZM539 127 9270 127 9270 3571 539 3571Z" fill-rule="evenodd" clip-rule="evenodd"/></clipPath></defs><g clip-path="url(#clip1)" transform="translate(-539 -127)"><g clip-path="url(#clip2)"><g filter="url(#fx0)" transform="translate(538 126)"><g><path d="M24.2226 159.051C24.2226 84.5874 84.5872 24.2228 159.051 24.2228L8573.39 24.2228C8647.86 24.2228 8708.22 84.5874 8708.22 159.051L8708.22 3286.39C8708.22 3360.86 8647.86 3421.22 8573.39 3421.22L159.051 3421.22C84.5872 3421.22 24.2226 3360.86 24.2226 3286.39Z" stroke="#042433" stroke-width="9" stroke-linejoin="round" stroke-miterlimit="10" fill="#F5F6FA" fill-rule="evenodd"/></g></g></g><path d="M552.5 275.328C552.5 200.865 612.864 140.5 687.328 140.5L9101.67 140.5C9176.14 140.5 9236.5 200.865 9236.5 275.328L9236.5 3402.67C9236.5 3477.14 9176.14 3537.5 9101.67 3537.5L687.328 3537.5C612.864 3537.5 552.5 3477.14 552.5 3402.67Z" stroke="#042433" stroke-width="9.16667" stroke-linejoin="round" stroke-miterlimit="10" fill="#F5F6FA" fill-rule="evenodd"/></g></svg>