<svg width="8748" height="3473" xmlns="http://www.w3.org/2000/svg" xmlns:xlink="http://www.w3.org/1999/xlink" xml:space="preserve" overflow="hidden"><defs><filter id="fx0" x="-10%" y="-10%" width="120%" height="120%" filterUnits="userSpaceOnUse" primitiveUnits="userSpaceOnUse"><feComponentTransfer color-interpolation-filters="sRGB"><feFuncR type="discrete" tableValues="0 0"/><feFuncG type="discrete" tableValues="0 0"/><feFuncB type="discrete" tableValues="0 0"/><feFuncA type="linear" slope="0.4" intercept="0"/></feComponentTransfer><feGaussianBlur stdDeviation="6.11111 6.11111"/></filter><clipPath id="clip1"><rect x="539" y="123" width="8748" height="3473"/></clipPath><clipPath id="clip2"><path d="M688.477 136.5C613.379 136.5 552.5 197.379 552.5 272.477L552.5 3426.52C552.5 3501.62 613.379 3562.5 688.477 3562.5L9117.52 3562.5C9192.62 3562.5 9253.5 3501.62 9253.5 3426.52L9253.5 272.477C9253.5 197.379 9192.62 136.5 9117.52 136.5ZM539 123 9287 123 9287 3596 539 3596Z" fill-rule="evenodd" clip-rule="evenodd"/></clipPath></defs><g clip-path="url(#clip1)" transform="translate(-539 -123)"><g clip-path="url(#clip2)"><g filter="url(#fx0)" transform="translate(538 122)"><g><path d="M24.2226 160.2C24.2226 85.1016 85.1015 24.2227 160.2 24.2227L8589.25 24.2227C8664.34 24.2227 8725.22 85.1016 8725.22 160.2L8725.22 3314.25C8725.22 3389.34 8664.34 3450.22 8589.25 3450.22L160.2 3450.22C85.1015 3450.22 24.2226 3389.34 24.2226 3314.25Z" stroke="#042433" stroke-width="9" stroke-linejoin="round" stroke-miterlimit="10" fill="#FFFFFF" fill-rule="evenodd"/></g></g></g><path d="M552.5 272.477C552.5 197.379 613.379 136.5 688.477 136.5L9117.52 136.5C9192.62 136.5 9253.5 197.379 9253.5 272.477L9253.5 3426.52C9253.5 3501.62 9192.62 3562.5 9117.52 3562.5L688.477 3562.5C613.379 3562.5 552.5 3501.62 552.5 3426.52Z" stroke="#042433" stroke-width="9.16667" stroke-linejoin="round" stroke-miterlimit="10" fill="#FFFFFF" fill-rule="evenodd"/></g></svg>