<svg width="10147" height="4902" xmlns="http://www.w3.org/2000/svg" xmlns:xlink="http://www.w3.org/1999/xlink" xml:space="preserve" overflow="hidden"><defs><filter id="fx0" x="-10%" y="-10%" width="120%" height="120%" filterUnits="userSpaceOnUse" primitiveUnits="userSpaceOnUse"><feComponentTransfer color-interpolation-filters="sRGB"><feFuncR type="discrete" tableValues="0 0"/><feFuncG type="discrete" tableValues="0 0"/><feFuncB type="discrete" tableValues="0 0"/><feFuncA type="linear" slope="0.4" intercept="0"/></feComponentTransfer><feGaussianBlur stdDeviation="6.11111 6.11111"/></filter><clipPath id="clip1"><rect x="511" y="232" width="10147" height="4902"/></clipPath><clipPath id="clip2"><path d="M707.433 244.5C605.85 244.5 523.5 326.85 523.5 428.433L523.5 4917.64C523.5 5019.23 605.85 5101.58 707.433 5101.58L10441.6 5101.58C10543.2 5101.58 10625.5 5019.23 10625.5 4917.64L10625.5 428.433C10625.5 326.85 10543.2 244.5 10441.6 244.5ZM511 232 10658 232 10658 5134 511 5134Z" fill-rule="evenodd" clip-rule="evenodd"/></clipPath></defs><g clip-path="url(#clip1)" transform="translate(-511 -232)"><g clip-path="url(#clip2)"><g filter="url(#fx0)" transform="translate(510 231)"><g><path d="M23.2228 207.156C23.2228 105.572 105.572 23.2226 207.156 23.2226L9941.29 23.2226C10042.9 23.2226 10125.2 105.572 10125.2 207.156L10125.2 4696.37C10125.2 4797.95 10042.9 4880.3 9941.29 4880.3L207.156 4880.3C105.572 4880.3 23.2228 4797.95 23.2228 4696.37Z" stroke="#7F7F7F" stroke-width="7" stroke-miterlimit="8" fill="#FFFFFF" fill-rule="evenodd"/></g></g></g><path d="M523.5 428.433C523.5 326.85 605.85 244.5 707.433 244.5L10441.6 244.5C10543.2 244.5 10625.5 326.85 10625.5 428.433L10625.5 4917.64C10625.5 5019.23 10543.2 5101.58 10441.6 5101.58L707.433 5101.58C605.85 5101.58 523.5 5019.23 523.5 4917.64Z" stroke="#7F7F7F" stroke-width="6.875" stroke-miterlimit="8" fill="#FFFFFF" fill-rule="evenodd"/></g></svg>