<svg xmlns="http://www.w3.org/2000/svg" viewBox="0 0 1600 900">
  <defs>
    <radialGradient id="g3" cx="50%" cy="50%" r="55%">
      <stop offset="0%" stop-color="#F2C811" stop-opacity="0.06"/>
      <stop offset="100%" stop-color="#0d1117" stop-opacity="0"/>
    </radialGradient>
  </defs>
  <rect width="1600" height="900" fill="#0d1117"/>
  <rect width="1600" height="900" fill="url(#g3)"/>
  <!-- Grouped bars left -->
  <rect x="80" y="560" width="44" height="240" rx="4" fill="#F2C811" opacity="0.30"/>
  <rect x="134" y="620" width="44" height="180" rx="4" fill="#F2C811" opacity="0.16"/>
  <rect x="218" y="490" width="44" height="310" rx="4" fill="#F2C811" opacity="0.22"/>
  <rect x="272" y="590" width="44" height="210" rx="4" fill="#F2C811" opacity="0.14"/>
  <rect x="356" y="530" width="44" height="270" rx="4" fill="#F2C811" opacity="0.26"/>
  <rect x="410" y="610" width="44" height="190" rx="4" fill="#F2C811" opacity="0.14"/>
  <!-- Line chart over bars -->
  <polyline points="102,560 234,490 378,530 510,580 642,500 774,540" fill="none" stroke="rgba(242,200,17,0.50)" stroke-width="3" stroke-linecap="round" stroke-linejoin="round"/>
  <!-- Insight panel decorative -->
  <rect x="1100" y="250" width="420" height="500" rx="14" fill="rgba(242,200,17,0.04)" stroke="rgba(242,200,17,0.14)" stroke-width="1"/>
  <line x1="1120" y1="340" x2="1500" y2="340" stroke="rgba(242,200,17,0.10)" stroke-width="1"/>
  <line x1="1120" y1="400" x2="1460" y2="400" stroke="rgba(242,200,17,0.07)" stroke-width="1"/>
  <line x1="1120" y1="450" x2="1480" y2="450" stroke="rgba(242,200,17,0.07)" stroke-width="1"/>
  <line x1="1120" y1="500" x2="1440" y2="500" stroke="rgba(242,200,17,0.07)" stroke-width="1"/>
  <!-- Center card -->
  <rect x="460" y="365" width="640" height="220" rx="18" fill="rgba(22,27,34,0.92)" stroke="rgba(242,200,17,0.28)" stroke-width="1.5"/>
  <text x="780" y="448" text-anchor="middle" font-family="Arial Black,Arial,sans-serif" font-size="58" font-weight="900" fill="#F2C811">Power BI</text>
  <text x="780" y="505" text-anchor="middle" font-family="Arial,sans-serif" font-size="21" font-weight="600" fill="rgba(230,237,243,0.88)">Churn Drivers — Behavioural Analysis</text>
  <text x="780" y="548" text-anchor="middle" font-family="Arial,sans-serif" font-size="16" fill="rgba(139,148,158,0.70)">Dashboard screenshot coming soon</text>
</svg>
