<svg xmlns="http://www.w3.org/2000/svg" viewBox="0 0 1600 900">
  <defs>
    <radialGradient id="g4" cx="50%" cy="50%" r="55%">
      <stop offset="0%" stop-color="#E97627" stop-opacity="0.07"/>
      <stop offset="100%" stop-color="#0d1117" stop-opacity="0"/>
    </radialGradient>
  </defs>
  <rect width="1600" height="900" fill="#0d1117"/>
  <rect width="1600" height="900" fill="url(#g4)"/>
  <!-- Donut pie decorative left -->
  <circle cx="280" cy="360" r="140" fill="none" stroke="rgba(233,118,39,0.10)" stroke-width="56"/>
  <circle cx="280" cy="360" r="140" fill="none" stroke="rgba(233,118,39,0.55)" stroke-width="56" stroke-dasharray="350 880" stroke-linecap="butt" transform="rotate(-90 280 360)"/>
  <circle cx="280" cy="360" r="140" fill="none" stroke="rgba(233,118,39,0.30)" stroke-width="56" stroke-dasharray="230 880" stroke-dashoffset="-350" stroke-linecap="butt" transform="rotate(-90 280 360)"/>
  <!-- Horizontal bars right -->
  <rect x="1100" y="220" width="380" height="30" rx="5" fill="#E97627" opacity="0.28"/>
  <rect x="1100" y="275" width="280" height="30" rx="5" fill="#E97627" opacity="0.20"/>
  <rect x="1100" y="330" width="320" height="30" rx="5" fill="#E97627" opacity="0.24"/>
  <rect x="1100" y="385" width="200" height="30" rx="5" fill="#E97627" opacity="0.15"/>
  <rect x="1100" y="440" width="250" height="30" rx="5" fill="#E97627" opacity="0.18"/>
  <!-- KPI stats top -->
  <rect x="100" y="55" width="160" height="80" rx="10" fill="rgba(233,118,39,0.05)" stroke="rgba(233,118,39,0.15)" stroke-width="1"/>
  <rect x="290" y="55" width="160" height="80" rx="10" fill="rgba(233,118,39,0.05)" stroke="rgba(233,118,39,0.15)" stroke-width="1"/>
  <rect x="480" y="55" width="160" height="80" rx="10" fill="rgba(233,118,39,0.05)" stroke="rgba(233,118,39,0.15)" stroke-width="1"/>
  <rect x="670" y="55" width="160" height="80" rx="10" fill="rgba(233,118,39,0.05)" stroke="rgba(233,118,39,0.15)" stroke-width="1"/>
  <!-- Small bar chart bottom -->
  <rect x="100" y="650" width="55" height="150" rx="4" fill="#E97627" opacity="0.14"/>
  <rect x="175" y="600" width="55" height="200" rx="4" fill="#E97627" opacity="0.22"/>
  <rect x="250" y="680" width="55" height="120" rx="4" fill="#E97627" opacity="0.16"/>
  <rect x="325" y="630" width="55" height="170" rx="4" fill="#E97627" opacity="0.20"/>
  <!-- Center card -->
  <rect x="500" y="375" width="600" height="210" rx="18" fill="rgba(22,27,34,0.92)" stroke="rgba(233,118,39,0.30)" stroke-width="1.5"/>
  <text x="800" y="455" text-anchor="middle" font-family="Arial Black,Arial,sans-serif" font-size="58" font-weight="900" fill="#E97627">Tableau</text>
  <text x="800" y="512" text-anchor="middle" font-family="Arial,sans-serif" font-size="24" font-weight="600" fill="rgba(230,237,243,0.88)">Superstore Sales Dashboard</text>
  <text x="800" y="554" text-anchor="middle" font-family="Arial,sans-serif" font-size="16" fill="rgba(139,148,158,0.70)">Dashboard screenshot coming soon</text>
</svg>
