<svg xmlns="http://www.w3.org/2000/svg" viewBox="0 0 1600 900">
  <defs>
    <radialGradient id="g2" cx="50%" cy="50%" r="55%">
      <stop offset="0%" stop-color="#F2C811" stop-opacity="0.06"/>
      <stop offset="100%" stop-color="#0d1117" stop-opacity="0"/>
    </radialGradient>
  </defs>
  <rect width="1600" height="900" fill="#0d1117"/>
  <rect width="1600" height="900" fill="url(#g2)"/>
  <!-- Scatter dots decorative -->
  <circle cx="150" cy="500" r="5" fill="#F2C811" opacity="0.18"/>
  <circle cx="220" cy="580" r="4" fill="#F2C811" opacity="0.14"/>
  <circle cx="300" cy="520" r="6" fill="#F2C811" opacity="0.22"/>
  <circle cx="380" cy="600" r="4" fill="#F2C811" opacity="0.16"/>
  <circle cx="450" cy="470" r="5" fill="#F2C811" opacity="0.20"/>
  <circle cx="150" cy="640" r="4" fill="#F2C811" opacity="0.12"/>
  <circle cx="260" cy="660" r="5" fill="#F2C811" opacity="0.15"/>
  <circle cx="340" cy="700" r="3" fill="#F2C811" opacity="0.13"/>
  <!-- Donut ring decorative -->
  <circle cx="1300" cy="300" r="130" fill="none" stroke="rgba(242,200,17,0.08)" stroke-width="48"/>
  <circle cx="1300" cy="300" r="130" fill="none" stroke="rgba(242,200,17,0.50)" stroke-width="48" stroke-dasharray="285 530" stroke-linecap="butt" transform="rotate(-90 1300 300)"/>
  <circle cx="1300" cy="300" r="130" fill="none" stroke="rgba(242,200,17,0.28)" stroke-width="48" stroke-dasharray="155 530" stroke-dashoffset="-285" stroke-linecap="butt" transform="rotate(-90 1300 300)"/>
  <!-- KPI bar -->
  <rect x="100" y="55" width="180" height="75" rx="10" fill="rgba(242,200,17,0.04)" stroke="rgba(242,200,17,0.12)" stroke-width="1"/>
  <rect x="310" y="55" width="180" height="75" rx="10" fill="rgba(242,200,17,0.04)" stroke="rgba(242,200,17,0.12)" stroke-width="1"/>
  <rect x="520" y="55" width="180" height="75" rx="10" fill="rgba(242,200,17,0.04)" stroke="rgba(242,200,17,0.12)" stroke-width="1"/>
  <!-- Horizontal bars right -->
  <rect x="900" y="560" width="300" height="28" rx="5" fill="#F2C811" opacity="0.25"/>
  <rect x="900" y="608" width="220" height="28" rx="5" fill="#F2C811" opacity="0.18"/>
  <rect x="900" y="656" width="260" height="28" rx="5" fill="#F2C811" opacity="0.20"/>
  <rect x="900" y="704" width="180" height="28" rx="5" fill="#F2C811" opacity="0.15"/>
  <!-- Center card -->
  <rect x="480" y="380" width="640" height="210" rx="18" fill="rgba(22,27,34,0.92)" stroke="rgba(242,200,17,0.28)" stroke-width="1.5"/>
  <text x="800" y="460" text-anchor="middle" font-family="Arial Black,Arial,sans-serif" font-size="58" font-weight="900" fill="#F2C811">Power BI</text>
  <text x="800" y="518" text-anchor="middle" font-family="Arial,sans-serif" font-size="22" font-weight="600" fill="rgba(230,237,243,0.88)">Bank Customer Churn Analysis</text>
  <text x="800" y="560" text-anchor="middle" font-family="Arial,sans-serif" font-size="16" fill="rgba(139,148,158,0.70)">Dashboard screenshot coming soon</text>
</svg>
